<svg width="16" height="14" viewBox="0 0 16 14" fill="none" xmlns="http://www.w3.org/2000/svg">
<path d="M10.4995 2H5.5V2C5.5 1.44772 5.94772 1 6.5 1H9.49946C10.0517 1 10.4995 1.44772 10.4995 2V2Z" fill="white"/>
<path d="M13.1429 4H2.85714C2.34286 4 2 3.6 2 3C2 2.4 2.34286 2 2.85714 2H13.1429C13.6571 2 14 2.4 14 3C14 3.6 13.6571 4 13.1429 4Z" fill="white"/>
<path d="M10.735 5L10.2938 11H5.70477L5.265 5H3.5L4.02802 12C4.02802 12.5 4.46927 13 4.91052 13H11.088C11.5293 13 11.9705 12.5 11.9705 12L12.5 5H10.735Z" fill="white"/>
</svg>
