<svg width="12" height="12" viewBox="0 0 12 12" fill="none" xmlns="http://www.w3.org/2000/svg">
<path d="M8.99902 0C10.104 0 11 0.895431 11 2V10C11 11.1046 10.104 12 8.99902 12H3.00098C1.89598 12 1 11.1046 1 10V2C1 0.895431 1.89598 0 3.00098 0H8.99902ZM8.83984 0.991211C8.14949 0.991211 7.58984 1.55085 7.58984 2.24121C7.59011 2.93134 8.14965 3.49121 8.83984 3.49121C9.53004 3.49121 10.0896 2.93134 10.0898 2.24121C10.0898 1.55085 9.5302 0.991211 8.83984 0.991211Z" fill="white"/>
<path d="M6.05469 3.93506C6.57893 3.93506 7.03028 4.03543 7.4043 4.2417H7.40527C7.77857 4.44297 8.06597 4.70976 8.26367 5.04248L8.33301 5.1665C8.48343 5.45824 8.55852 5.7686 8.55859 6.09619V6.19678H7.45898V6.09619C7.45894 5.91516 7.43066 5.75202 7.37402 5.60596L7.30762 5.46533C7.20888 5.28479 7.05892 5.1418 6.85352 5.0376H6.85254C6.6492 4.93163 6.38467 4.87549 6.05469 4.87549C5.7421 4.8755 5.49181 4.92239 5.2998 5.01123C5.10566 5.10112 4.96503 5.21923 4.87402 5.36475L4.875 5.36572C4.78538 5.51419 4.73926 5.6853 4.73926 5.88135C4.73929 6.01074 4.76654 6.12634 4.81836 6.22998C4.87282 6.32959 4.95719 6.42578 5.0752 6.51807L5.17383 6.5874C5.2791 6.65555 5.40396 6.72118 5.5498 6.78271L5.87695 6.90381L6.26465 7.02197L6.54883 7.10693C6.82294 7.19474 7.06759 7.29104 7.2832 7.39404C7.5706 7.53136 7.81092 7.68714 8.00098 7.86377L8.1377 8.00049C8.26436 8.14085 8.36347 8.29569 8.43359 8.46533L8.49707 8.63818C8.55126 8.81621 8.57809 9.00956 8.57812 9.21729C8.57812 9.5092 8.51856 9.77685 8.39844 10.0171C8.27882 10.2563 8.1076 10.4603 7.88672 10.6284C7.66642 10.7961 7.40382 10.9248 7.10059 11.0151H7.09961C6.79851 11.1025 6.46365 11.145 6.09668 11.145C5.85308 11.145 5.6121 11.1205 5.37402 11.0698L5.13672 11.0103C4.90187 10.9425 4.68212 10.8489 4.47754 10.73L4.27734 10.6021C4.01917 10.419 3.8106 10.193 3.65332 9.92432L3.65234 9.92334C3.49585 9.64698 3.41993 9.3294 3.41992 8.97412V8.87451H4.51953V8.97412C4.51954 9.19555 4.56233 9.3805 4.64355 9.53174C4.72656 9.68303 4.83924 9.80837 4.98242 9.90869L5.09766 9.98096C5.21626 10.0476 5.34616 10.0995 5.4873 10.1372H5.48828C5.68308 10.1852 5.88579 10.2094 6.09668 10.2095C6.40357 10.2095 6.65771 10.1669 6.86133 10.0854C7.06521 10.0039 7.21322 9.8899 7.3125 9.74658L7.31348 9.74561L7.38086 9.63232C7.43874 9.51404 7.46875 9.3796 7.46875 9.22705C7.46874 9.07814 7.44546 8.95079 7.40137 8.84326L7.39941 8.84033C7.35974 8.7347 7.28738 8.63618 7.17676 8.54541L7.17578 8.54443C7.09449 8.476 6.98688 8.40737 6.85059 8.34033L6.7041 8.27393C6.60192 8.2297 6.48541 8.18459 6.35449 8.13916L5.91895 8.00146C5.57804 7.90045 5.26868 7.78849 4.99219 7.66455L4.99121 7.66357C4.71315 7.53571 4.47289 7.38882 4.27148 7.22314C4.06814 7.05584 3.91064 6.86263 3.80078 6.64307C3.68975 6.42101 3.63477 6.16886 3.63477 5.89014C3.63481 5.61051 3.69324 5.35015 3.80957 5.11084C3.92556 4.87234 4.09101 4.66594 4.30469 4.4917L4.47461 4.36572C4.65192 4.24797 4.85149 4.15335 5.07227 4.08057C5.36817 3.98301 5.69595 3.93507 6.05469 3.93506Z" fill="#2C2C2C" stroke="#2C2C2C" stroke-width="0.2"/>
</svg>
