<svg width="16" height="16" viewBox="0 0 16 16" fill="none" xmlns="http://www.w3.org/2000/svg">
<path d="M11.8994 0C13.3357 0.000238118 14.5 1.19438 14.5 2.66699V13.333C14.5 14.8056 13.3357 15.9998 11.8994 16H4.10059C2.66428 15.9998 1.5 14.8056 1.5 13.333V2.66699C1.5 1.19438 2.66428 0.000238256 4.10059 0H11.8994ZM11.6211 0.827148C10.6805 0.827236 9.91797 1.58963 9.91797 2.53027C9.91814 3.47077 10.6806 4.23331 11.6211 4.2334C12.5617 4.2334 13.324 3.47082 13.3242 2.53027C13.3242 1.58957 12.5618 0.827148 11.6211 0.827148Z" fill="white"/>
<path d="M8.14355 5.27979C8.77633 5.27979 9.31879 5.3981 9.76562 5.64111C10.2098 5.88271 10.5555 6.21931 10.8018 6.64893H10.8027C11.0514 7.07263 11.203 7.56239 11.2607 8.11572L11.2725 8.22705H9.99121L9.97949 8.14014C9.92804 7.76532 9.83268 7.44813 9.69629 7.18604V7.18506C9.56194 6.92344 9.37184 6.72399 9.12598 6.5835C8.88273 6.44456 8.55763 6.37061 8.14355 6.37061C7.7918 6.37063 7.48574 6.43686 7.22363 6.56787L7.22461 6.56885C6.96478 6.70054 6.74438 6.88627 6.56543 7.12939L6.56641 7.13037C6.39048 7.37456 6.25644 7.66976 6.16504 8.01709C6.07363 8.36455 6.02639 8.75224 6.02637 9.18115V10.0103C6.02637 10.4054 6.06779 10.7756 6.14844 11.1206L6.21875 11.3706C6.29742 11.6121 6.39984 11.8287 6.52441 12.021C6.68871 12.2745 6.89639 12.4737 7.14844 12.6196H7.14941C7.39882 12.7601 7.69698 12.8325 8.04785 12.8325C8.50135 12.8325 8.85176 12.7606 9.10645 12.6245C9.36304 12.4874 9.55483 12.2916 9.68457 12.0356L9.68555 12.0347L9.78027 11.8276C9.86861 11.6096 9.93528 11.3603 9.97949 11.0786L9.99316 10.9937H11.2734L11.2607 11.105C11.2029 11.6363 11.0511 12.1145 10.8027 12.5376C10.5524 12.9639 10.198 13.3014 9.74316 13.5503L9.74219 13.5513C9.28378 13.798 8.71731 13.9185 8.04785 13.9185C7.55381 13.9185 7.10159 13.8252 6.69238 13.6382H6.69141C6.33779 13.4749 6.02701 13.2522 5.75977 12.9702L5.64746 12.8452C5.39261 12.5428 5.18961 12.1889 5.03711 11.7856L4.97461 11.6099V11.6089C4.82062 11.1275 4.74414 10.5942 4.74414 10.0103V9.19287C4.74414 8.60883 4.82048 8.07692 4.97461 7.59912L5.03711 7.42139C5.19006 7.01537 5.39506 6.66034 5.65332 6.35791L5.76855 6.23193C6.04368 5.94655 6.36522 5.72229 6.73242 5.55908C7.15301 5.37216 7.62393 5.27981 8.14355 5.27979Z" fill="#2C2C2C" stroke="#2C2C2C" stroke-width="0.2"/>
</svg>
