<svg width="16" height="16" viewBox="0 0 16 16" fill="none" xmlns="http://www.w3.org/2000/svg">
<path d="M8.07617 5.27979C8.77172 5.27984 9.3684 5.41267 9.86133 5.68506H9.86035C10.3531 5.95073 10.731 6.30222 10.9912 6.73975H10.9922C11.2512 7.17139 11.3808 7.63509 11.3809 8.12842V8.229H9.98145V8.12842C9.98141 7.88316 9.94246 7.66149 9.86523 7.4624L9.77539 7.271C9.64017 7.02374 9.43473 6.82872 9.15527 6.68701H9.1543L9.2002 6.59814L9.1543 6.68604C8.87713 6.54163 8.51939 6.46636 8.07617 6.46631C7.70865 6.46631 7.40318 6.51557 7.15723 6.60889L7.05566 6.65088C6.79157 6.77307 6.59905 6.93545 6.47363 7.13623L6.47461 7.13721C6.35166 7.34086 6.28906 7.57444 6.28906 7.84131C6.28907 8.01763 6.32473 8.17625 6.39551 8.31885L6.45996 8.42236C6.53199 8.52429 6.6279 8.62259 6.74902 8.71729L6.88281 8.81104C7.0252 8.90322 7.19377 8.99109 7.38965 9.07373L7.59863 9.15576C7.67182 9.18298 7.7483 9.21004 7.82812 9.23682L8.3457 9.39404L8.34668 9.39502L8.72363 9.5083C9.088 9.62501 9.41328 9.75159 9.69922 9.88818L9.97363 10.0298C10.2353 10.1758 10.4606 10.3356 10.6484 10.5103L10.8281 10.689C10.9949 10.8737 11.1248 11.0775 11.2168 11.3003L11.2998 11.5278C11.3709 11.7617 11.4062 12.0164 11.4062 12.2905C11.4062 12.627 11.3461 12.9376 11.2256 13.2212L11.1709 13.3413C11.0531 13.5767 10.8971 13.786 10.7041 13.9692L10.498 14.144C10.2079 14.3649 9.86122 14.5343 9.45996 14.6538V14.6548C9.06199 14.7703 8.6186 14.8267 8.13184 14.8267C7.70183 14.8266 7.27831 14.7671 6.86133 14.6479H6.86035C6.4463 14.5284 6.068 14.3486 5.72559 14.1089H5.72461C5.38418 13.8676 5.1096 13.5694 4.90234 13.2153V13.2144C4.69691 12.8516 4.59572 12.4341 4.5957 11.9653V11.8657H5.99512V11.9653C5.99513 12.2645 6.05291 12.5158 6.16406 12.7231L6.25684 12.8716C6.35711 13.0137 6.48019 13.136 6.62695 13.2388H6.62598C6.82836 13.3777 7.05811 13.4812 7.31445 13.5493H7.31348C7.57567 13.6138 7.84839 13.646 8.13184 13.646C8.54386 13.646 8.88659 13.5886 9.16309 13.478C9.43999 13.3673 9.64348 13.2117 9.78027 13.0142L9.78125 13.0132L9.87402 12.8579C9.95365 12.6953 9.99414 12.5103 9.99414 12.3022C9.9941 12.1003 9.96211 11.9259 9.90137 11.7778L9.90039 11.7759C9.84512 11.6285 9.7441 11.4918 9.59277 11.3677L9.5918 11.3667C9.44385 11.2422 9.23295 11.12 8.95508 11.0015H8.9541C8.68021 10.8829 8.33086 10.7605 7.9043 10.6362H7.90332C7.45007 10.5019 7.03986 10.3525 6.67285 10.188H6.67188C6.39545 10.0609 6.14757 9.91983 5.92871 9.76514L5.71875 9.60596C5.51775 9.44062 5.35138 9.25577 5.21973 9.05225L5.09961 8.84229C4.95425 8.55156 4.88284 8.22115 4.88281 7.854C4.88281 7.48574 4.9585 7.143 5.11133 6.82861L5.23828 6.60205C5.37698 6.38258 5.55163 6.18629 5.7627 6.01416L5.9873 5.84912C6.22107 5.69385 6.48448 5.56839 6.77637 5.47217L7.07715 5.38721C7.38617 5.31498 7.71966 5.27979 8.07617 5.27979Z" fill="black" stroke="black" stroke-width="0.2"/>
<path d="M11.8994 0C13.3357 0.000238118 14.5 1.19438 14.5 2.66699V13.333C14.5 14.8056 13.3357 15.9998 11.8994 16H4.10059C2.66428 15.9998 1.5 14.8056 1.5 13.333V2.66699C1.5 1.19438 2.66428 0.000238256 4.10059 0H11.8994ZM11.6211 0.827148C10.6805 0.827236 9.91797 1.58963 9.91797 2.53027C9.91814 3.47077 10.6806 4.23331 11.6211 4.2334C12.5617 4.2334 13.324 3.47082 13.3242 2.53027C13.3242 1.58957 12.5618 0.827148 11.6211 0.827148Z" fill="white"/>
<path d="M8.06641 5.7373C8.66139 5.73736 9.17248 5.8515 9.5957 6.08496H9.59668C10.0196 6.31299 10.3447 6.61492 10.5684 6.99121L10.6465 7.13184C10.8169 7.46227 10.9033 7.81359 10.9033 8.18457V8.28418H9.67871V8.18457C9.67871 7.90754 9.62003 7.66626 9.50488 7.45898H9.50391C9.39006 7.25082 9.21746 7.08656 8.98145 6.9668L8.98047 6.96582C8.74651 6.8439 8.44333 6.78032 8.06641 6.78027C7.70937 6.78027 7.42214 6.83338 7.20117 6.93555C6.97727 7.03914 6.81527 7.17754 6.70996 7.34668C6.60721 7.51757 6.55476 7.71392 6.55469 7.93848C6.55469 8.08686 6.58526 8.22033 6.64453 8.33984L6.69824 8.42676C6.75884 8.5125 6.83975 8.59558 6.94238 8.67578L7.05566 8.75488C7.17633 8.83298 7.31976 8.90727 7.48633 8.97754H7.48535C7.71176 9.07158 7.98345 9.16283 8.30078 9.25098L8.62402 9.34863C8.93555 9.44844 9.21421 9.55591 9.45898 9.67285C9.78551 9.82886 10.0573 10.0069 10.2725 10.207L10.4268 10.3604C10.5702 10.5192 10.6815 10.6949 10.7607 10.8867H10.7617C10.8711 11.1394 10.9238 11.4236 10.9238 11.7373C10.9238 12.0677 10.8574 12.3702 10.7217 12.6416C10.5866 12.9117 10.3932 13.1419 10.1436 13.332C9.89421 13.5218 9.59598 13.6671 9.25195 13.7695V13.7705C8.91068 13.8696 8.5309 13.9179 8.11426 13.918C7.8378 13.918 7.56414 13.8895 7.29395 13.832L7.02441 13.7646C6.66934 13.6621 6.34455 13.5083 6.05078 13.3027H6.0498C5.75747 13.0955 5.52179 12.8393 5.34375 12.5352V12.5342C5.16692 12.2219 5.08008 11.8624 5.08008 11.46V11.3604H6.30371V11.46C6.30371 11.7138 6.35355 11.926 6.44727 12.1006H6.44629C6.54182 12.2751 6.67195 12.4195 6.83691 12.5352L6.96973 12.6182C7.10599 12.6948 7.255 12.7546 7.41699 12.7979H7.41797C7.64092 12.8527 7.87306 12.8809 8.11426 12.8809C8.46472 12.8808 8.75543 12.8318 8.98926 12.7383C9.22348 12.6446 9.39492 12.5135 9.50977 12.3477L9.51074 12.3467L9.58789 12.2158C9.65486 12.0791 9.68945 11.9237 9.68945 11.748C9.68944 11.6198 9.67459 11.5051 9.64551 11.4033L9.61133 11.3057L9.61035 11.3027C9.56419 11.1798 9.48001 11.0655 9.35254 10.9609L9.35156 10.96C9.25789 10.8811 9.13359 10.8033 8.97754 10.7266L8.81055 10.6504C8.69401 10.6 8.5612 10.5488 8.41211 10.4971L7.91504 10.3398C7.52747 10.225 7.1764 10.0968 6.8623 9.95605H6.86133C6.54575 9.81096 6.27311 9.64466 6.04492 9.45703C5.81455 9.26753 5.63589 9.04815 5.51172 8.7998C5.38645 8.54923 5.3252 8.26466 5.3252 7.94922C5.32525 7.63294 5.3901 7.33873 5.52148 7.06836C5.61985 6.86602 5.75027 6.68404 5.91113 6.52246L6.08203 6.36719C6.32719 6.16666 6.61763 6.01237 6.95117 5.90234C7.28648 5.7918 7.65917 5.7373 8.06641 5.7373Z" fill="#2C2C2C" stroke="#2C2C2C" stroke-width="0.2"/>
</svg>
