<svg width="16" height="16" viewBox="0 0 16 16" fill="none" xmlns="http://www.w3.org/2000/svg">
<path d="M11.8994 0C13.3357 0.000238118 14.5 1.19438 14.5 2.66699V13.333C14.5 14.8056 13.3357 15.9998 11.8994 16H4.10059C2.66428 15.9998 1.5 14.8056 1.5 13.333V2.66699C1.5 1.19438 2.66428 0.000238256 4.10059 0H11.8994ZM11.6211 0.827148C10.6805 0.827236 9.91797 1.58963 9.91797 2.53027C9.91814 3.47077 10.6806 4.23331 11.6211 4.2334C12.5617 4.2334 13.324 3.47082 13.3242 2.53027C13.3242 1.58957 12.5618 0.827148 11.6211 0.827148Z" fill="white"/>
<path d="M8.55371 5.27979L8.5791 5.34326L11.8066 13.7827L11.8594 13.9185H10.4961L10.4717 13.853L9.69238 11.7104H6.30273L5.52441 13.8521L5.50098 13.9185H4.14355L4.19531 13.7827L7.41211 5.34424L7.43652 5.27979H8.55371ZM6.70801 10.5942H9.28613L7.99512 7.04834L6.70801 10.5942Z" fill="#2C2C2C" stroke="#2C2C2C" stroke-width="0.2"/>
</svg>
