<svg width="12" height="12" viewBox="0 0 12 12" fill="none" xmlns="http://www.w3.org/2000/svg">
<path d="M8.99902 0C10.104 0 11 0.895431 11 2V10C11 11.1046 10.104 12 8.99902 12H3.00098C1.89598 12 1 11.1046 1 10V2C1 0.895431 1.89598 0 3.00098 0H8.99902ZM8.83984 0.991211C8.14949 0.991211 7.58984 1.55085 7.58984 2.24121C7.59011 2.93134 8.14965 3.49121 8.83984 3.49121C9.53004 3.49121 10.0896 2.93134 10.0898 2.24121C10.0898 1.55085 9.5302 0.991211 8.83984 0.991211Z" fill="white"/>
<path d="M6.46973 3.81396L6.49414 3.87744L9.1582 10.8423L9.20996 10.978H8.04785L8.02344 10.9126L7.38379 9.15576H4.61133L3.97363 10.9116L3.9502 10.978H2.79199L2.84375 10.8423L5.49902 3.87842L5.52344 3.81396H6.46973ZM4.95898 8.19971H7.03613L5.99609 5.34229L4.95898 8.19971Z" fill="#2C2C2C" stroke="#2C2C2C" stroke-width="0.2"/>
</svg>
