<svg width="12" height="12" viewBox="0 0 12 12" fill="none" xmlns="http://www.w3.org/2000/svg">
<path d="M8.99902 0C10.104 0 11 0.895431 11 2V10C11 11.1046 10.104 12 8.99902 12H3.00098C1.89598 12 1 11.1046 1 10V2C1 0.895431 1.89598 0 3.00098 0H8.99902ZM8.83984 0.991211C8.14949 0.991211 7.58984 1.55085 7.58984 2.24121C7.59011 2.93134 8.14965 3.49121 8.83984 3.49121C9.53004 3.49121 10.0896 2.93134 10.0898 2.24121C10.0898 1.55085 9.5302 0.991211 8.83984 0.991211Z" fill="white"/>
<path d="M6.11816 3.81396C6.64517 3.814 7.09786 3.9125 7.47168 4.11572C7.84303 4.31768 8.13282 4.59917 8.33887 4.9585L8.41309 5.09424C8.57731 5.41604 8.68058 5.77933 8.72266 6.18311L8.7334 6.29346H7.63672L7.625 6.20752C7.5931 5.97509 7.54115 5.76939 7.46973 5.59033L7.3916 5.42041C7.28155 5.20609 7.12592 5.04217 6.9248 4.92725C6.72638 4.81394 6.45981 4.75345 6.11816 4.75342C5.90085 4.75342 5.70507 4.78442 5.53027 4.84521L5.3623 4.91553C5.14892 5.02368 4.96933 5.17748 4.82227 5.37744L4.82129 5.37646C4.6768 5.57712 4.56659 5.82049 4.49121 6.10693C4.41578 6.39365 4.37796 6.71411 4.37793 7.06885V7.75732C4.37793 8.0843 4.41183 8.39022 4.47852 8.67529H4.47754C4.54704 8.9592 4.65146 9.20562 4.78809 9.4165C4.92334 9.62527 5.0943 9.78888 5.30176 9.90869H5.30078C5.50472 10.0235 5.74939 10.0825 6.03809 10.0825C6.41295 10.0825 6.70117 10.0227 6.90918 9.91162C7.11894 9.79946 7.27581 9.63936 7.38184 9.43018V9.4292L7.46094 9.25928C7.53368 9.07975 7.58847 8.8739 7.625 8.64111L7.63867 8.55615H8.73438L8.72168 8.66748C8.67346 9.11077 8.54642 9.51028 8.33887 9.86377C8.15557 10.1758 7.90604 10.4312 7.5918 10.6294L7.45312 10.7104C7.06947 10.917 6.5958 11.0181 6.03809 11.0181C5.62595 11.018 5.24828 10.94 4.90625 10.7837H4.90527C4.56757 10.6278 4.27651 10.407 4.0332 10.1216V10.1206C3.78996 9.83195 3.60317 9.48799 3.47168 9.09033L3.4707 9.08936C3.34228 8.68793 3.2793 8.24346 3.2793 7.75732V7.07861C3.2793 6.59261 3.34226 6.14985 3.4707 5.75146V5.75049L3.58008 5.46045C3.70019 5.18029 3.85299 4.93112 4.03809 4.71436L4.13477 4.60889C4.36449 4.37073 4.63298 4.18361 4.93945 4.04736C5.29104 3.8911 5.68478 3.81396 6.11816 3.81396Z" fill="#2C2C2C" stroke="#2C2C2C" stroke-width="0.2"/>
</svg>
