<svg width="16" height="16" viewBox="0 0 16 16" fill="none" xmlns="http://www.w3.org/2000/svg">
<path d="M11.8994 0C13.3357 0.000238118 14.5 1.19438 14.5 2.66699V13.333C14.5 14.8056 13.3357 15.9998 11.8994 16H4.10059C2.66428 15.9998 1.5 14.8056 1.5 13.333V2.66699C1.5 1.19438 2.66428 0.000238256 4.10059 0H11.8994ZM11.6211 0.827148C10.6805 0.827236 9.91797 1.58963 9.91797 2.53027C9.91814 3.47077 10.6806 4.23331 11.6211 4.2334C12.5617 4.2334 13.324 3.47082 13.3242 2.53027C13.3242 1.58957 12.5618 0.827148 11.6211 0.827148Z" fill="white"/>
<path d="M7.99512 5.27979C8.50738 5.27979 8.97284 5.37216 9.38965 5.55908L9.54492 5.6333C9.89893 5.81529 10.2072 6.06233 10.4688 6.37451L10.5791 6.51123C10.8282 6.83674 11.0213 7.21869 11.1592 7.65576L11.2158 7.84521C11.3395 8.29414 11.4014 8.79243 11.4014 9.33936V9.85791C11.4014 10.4829 11.3228 11.047 11.165 11.5474C11.0075 12.0468 10.7795 12.4741 10.4805 12.8276C10.2186 13.1371 9.91008 13.3832 9.55566 13.5649L9.40137 13.6392C8.98458 13.8261 8.51908 13.9184 8.00684 13.9185C7.57112 13.9185 7.16437 13.8475 6.78809 13.7046L6.62891 13.6392C6.26483 13.4758 5.94224 13.2483 5.66211 12.9575L5.54492 12.8286C5.24201 12.4752 5.00799 12.0478 4.84277 11.5483C4.67713 11.0475 4.5957 10.4833 4.5957 9.85791V9.33936C4.59571 8.71431 4.67516 8.15266 4.83691 7.65576V7.65479L4.90234 7.47119C5.06185 7.04992 5.27401 6.68374 5.53906 6.37451C5.84157 6.0179 6.20117 5.74576 6.61719 5.55908H6.61816L6.77734 5.49365C7.15348 5.35086 7.5596 5.27981 7.99512 5.27979ZM7.99512 6.40479C7.75116 6.4048 7.52612 6.43992 7.31934 6.51025L7.11914 6.59229C6.86355 6.71662 6.6427 6.89997 6.45605 7.14404L6.45508 7.14307C6.2724 7.38685 6.12993 7.69173 6.02734 8.05811C5.92513 8.42332 5.87308 8.84603 5.87305 9.32764V9.85791C5.87305 10.3436 5.925 10.7709 6.02734 11.1401L6.1123 11.4038C6.20506 11.6554 6.32134 11.8736 6.46094 12.0591L6.61035 12.231C6.76506 12.391 6.9377 12.5176 7.12891 12.6108H7.12988C7.38947 12.7353 7.68165 12.7993 8.00684 12.7993C8.34768 12.7993 8.64631 12.735 8.90527 12.6108C9.16431 12.4866 9.38281 12.3041 9.56152 12.061H9.5625L9.69141 11.8647C9.81237 11.6573 9.90906 11.4167 9.98047 11.1421L10.043 10.854C10.0967 10.5549 10.123 10.2226 10.123 9.85791V9.32764C10.123 8.84577 10.0733 8.42266 9.97461 8.05713V8.05615C9.87942 7.69003 9.73914 7.3864 9.55664 7.14307C9.41993 6.96079 9.261 6.81208 9.0791 6.69678L8.88867 6.59229C8.62951 6.46803 8.33212 6.40479 7.99512 6.40479Z" fill="#2C2C2C" stroke="#2C2C2C" stroke-width="0.2"/>
</svg>
