<svg width="12" height="12" viewBox="0 0 12 12" fill="none" xmlns="http://www.w3.org/2000/svg">
<path d="M8.99902 0C10.104 0 11 0.895431 11 2V10C11 11.1046 10.104 12 8.99902 12H3.00098C1.89598 12 1 11.1046 1 10V2C1 0.895431 1.89598 0 3.00098 0H8.99902ZM8.83984 0.991211C8.14949 0.991211 7.58984 1.55085 7.58984 2.24121C7.59011 2.93134 8.14965 3.49121 8.83984 3.49121C9.53004 3.49121 10.0896 2.93134 10.0898 2.24121C10.0898 1.55085 9.5302 0.991211 8.83984 0.991211Z" fill="white"/>
<path d="M5.99609 3.81396C6.42328 3.81396 6.8118 3.89113 7.16016 4.04736L7.28906 4.10889C7.58505 4.26093 7.84296 4.46719 8.06152 4.72803L8.15332 4.84229C8.36142 5.11419 8.52268 5.43291 8.6377 5.79736L8.72656 6.11768C8.80223 6.44852 8.83887 6.80952 8.83887 7.19971V7.63037C8.83886 8.15031 8.77413 8.6195 8.64258 9.03662C8.51121 9.45311 8.32127 9.81053 8.07129 10.106C7.85264 10.3643 7.59483 10.5694 7.29883 10.7212L7.16992 10.7827C6.82161 10.939 6.43299 11.0161 6.00586 11.0161C5.64233 11.0161 5.30266 10.9568 4.98828 10.8374L4.85547 10.7827C4.50807 10.6269 4.20591 10.4014 3.9502 10.1069L3.94922 10.106C3.69631 9.81083 3.50192 9.45379 3.36426 9.0376C3.22619 8.62009 3.15821 8.15065 3.1582 7.63037V7.19971C3.1582 6.67961 3.2245 6.21171 3.35938 5.79736V5.79639L3.47363 5.49561C3.59834 5.20587 3.75559 4.94937 3.94531 4.72803C4.19787 4.4304 4.49824 4.20328 4.8457 4.04736L4.97949 3.9917C5.29364 3.87249 5.63288 3.81397 5.99609 3.81396ZM5.28516 9.89893H5.28613C5.49896 10.0009 5.73835 10.0532 6.00586 10.0532C6.2865 10.0532 6.53192 10.0007 6.74414 9.89893C6.95641 9.7971 7.13554 9.64725 7.28223 9.44775L7.38867 9.28662C7.48819 9.11598 7.56801 8.91761 7.62695 8.69092L7.67871 8.45361C7.72312 8.20656 7.74511 7.93224 7.74512 7.63037V7.18994C7.7451 6.79122 7.70345 6.4417 7.62207 6.14014V6.13916C7.54352 5.83705 7.42818 5.58702 7.27832 5.38721C7.12854 5.1875 6.94612 5.03705 6.73047 4.93506H6.72949C6.51716 4.83335 6.27337 4.78174 5.99609 4.78174C5.72872 4.78175 5.48911 4.83217 5.27637 4.93408L5.27734 4.93506C5.06764 5.037 4.8859 5.18748 4.73242 5.38818L4.73145 5.38721C4.58144 5.5874 4.46357 5.83789 4.37891 6.14014C4.29453 6.44147 4.25197 6.79131 4.25195 7.18994V7.63037C4.25196 8.03197 4.29457 8.3845 4.37891 8.68896L4.44922 8.90674C4.52565 9.11409 4.6217 9.29341 4.73633 9.4458L4.8584 9.5874C4.98565 9.71911 5.12812 9.82243 5.28516 9.89893Z" fill="#2C2C2C" stroke="#2C2C2C" stroke-width="0.2"/>
</svg>
