<svg width="16" height="16" viewBox="0 0 16 16" fill="none" xmlns="http://www.w3.org/2000/svg">
<path d="M1.7 9.5H14.3C14.3415 9.5 14.3889 9.51734 14.4294 9.56083C14.4711 9.60549 14.5 9.67299 14.5 9.75V14.25C14.5 14.327 14.4711 14.3945 14.4294 14.4392C14.3889 14.4827 14.3415 14.5 14.3 14.5H1.7C1.65852 14.5 1.61114 14.4827 1.57055 14.4392C1.52887 14.3945 1.5 14.327 1.5 14.25V9.75C1.5 9.67299 1.52887 9.60549 1.57055 9.56083C1.61114 9.51734 1.65852 9.5 1.7 9.5Z" stroke="white"/>
<path d="M5 10H2V14H5V10Z" fill="white"/>
<path opacity="0.5" d="M10 10H5V14H10V10Z" fill="white"/>
<path opacity="0.5" d="M12.9578 4.74118L4 8.00008H15.0008L14.0083 5.23746C13.9336 5.03327 13.7815 4.86672 13.5849 4.77384C13.3883 4.68096 13.163 4.66923 12.9578 4.74118Z" fill="white"/>
<path opacity="0.5" d="M9.66208 1.77912C9.51366 1.63158 9.31289 1.54877 9.10361 1.54877C8.89433 1.54877 8.69355 1.63158 8.54513 1.77912L3 7.32426L11.7138 3.85459L9.66208 1.77912Z" fill="white"/>
<path opacity="0.5" d="M7.09121 0.936699C7.01118 0.877626 6.92091 0.833861 6.82497 0.807613L3.90442 0.0250348C3.70017 -0.0269976 3.48368 0.0029614 3.30124 0.108503C3.11881 0.214045 2.98492 0.386788 2.92821 0.589782L1 7.78628L7.09121 0.936699Z" fill="white"/>
</svg>
