<svg width="20" height="20" viewBox="0 0 20 20" fill="none" xmlns="http://www.w3.org/2000/svg">
<g clip-path="url(#clip0_2062_29215)">
<path d="M19 13V19H1V13H19ZM19 12H1C0.734784 12 0.48043 12.1054 0.292893 12.2929C0.105357 12.4804 0 12.7348 0 13L0 19C0 19.2652 0.105357 19.5196 0.292893 19.7071C0.48043 19.8946 0.734784 20 1 20H19C19.2652 20 19.5196 19.8946 19.7071 19.7071C19.8946 19.5196 20 19.2652 20 19V13C20 12.7348 19.8946 12.4804 19.7071 12.2929C19.5196 12.1054 19.2652 12 19 12Z" fill="white"/>
<path d="M1 13H6.5V19H1V13Z" fill="white" stroke="white"/>
<path opacity="0.5" d="M13 12H7V20H13V12Z" fill="white"/>
<path opacity="0.5" d="M16.73 6.06L5.90002 10H19.2L18 6.66C17.9097 6.41314 17.7258 6.21178 17.4881 6.09949C17.2504 5.9872 16.9781 5.97301 16.73 6.06Z" fill="white"/>
<path opacity="0.5" d="M12.3 1.83999C12.1127 1.65374 11.8592 1.54919 11.595 1.54919C11.3308 1.54919 11.0774 1.65374 10.89 1.83999L3.89001 8.83999L14.89 4.45999L12.3 1.83999Z" fill="white"/>
<path opacity="0.5" d="M8.40999 1.23005C8.31079 1.15683 8.19891 1.10258 8.07999 1.07005L4.45999 0.100047C4.20683 0.0355529 3.93849 0.0726868 3.71236 0.203505C3.48623 0.334323 3.32027 0.548437 3.24999 0.800047L0.859985 9.72005L8.40999 1.23005Z" fill="white"/>
</g>
<defs>
<clipPath id="clip0_2062_29215">
<rect width="20" height="20" fill="white"/>
</clipPath>
</defs>
</svg>
