<svg width="20" height="20" viewBox="0 0 20 20" fill="none" xmlns="http://www.w3.org/2000/svg">
<path fill-rule="evenodd" clip-rule="evenodd" d="M11.9074 8.95593C11.5056 7.61649 11.7734 6.1431 12.7111 5.07155C13.7826 4 15.256 3.73211 16.5954 4.26789L14.3184 6.54494C13.7826 7.08071 13.7826 8.15226 14.3184 8.68804C14.8542 9.22381 15.9257 9.22381 16.4615 8.68804L18.7385 6.41099C19.2743 7.75043 18.8725 9.22381 17.9349 10.2954C16.8633 11.3669 15.3899 11.6348 14.1844 11.233L11.9074 8.95593Z" fill="white"/>
<path opacity="0.5" d="M13.1128 12.0376L7.35318 17.7972C7.35318 18.333 7.21923 19.0027 6.68346 19.4045C5.87979 20.2082 4.40641 20.2082 3.60275 19.4045C2.79908 18.6009 2.79908 17.1275 3.60275 16.3238C4.13852 15.7881 4.6743 15.6541 5.34402 15.6541L11.1036 9.89453L13.1128 12.0376ZM5.87979 17.1275C5.47796 16.7257 4.80824 16.7257 4.40641 17.1275C4.00458 17.5293 4.00458 18.1991 4.40641 18.6009C4.80824 19.0027 5.47796 19.0027 5.87979 18.6009C6.28163 18.1991 6.28163 17.5293 5.87979 17.1275Z" fill="white"/>
<path d="M20 5.46777C19.7685 5.16135 19.396 4.75094 19 4.3457V1H1V6H10.3916C10.2883 6.32717 10.2155 6.6618 10.1729 7H0V0H20V5.46777Z" fill="white"/>
<path opacity="0.5" d="M18 2V3.37891C17.7163 3.12305 17.4842 2.93293 17.3672 2.86816L17.1865 2.78223C15.2649 2.01366 13.1094 2.4073 11.5762 3.94043L11.5039 4.01758C11.2351 4.32473 11.0077 4.65494 10.8184 5H2V2H18Z" fill="white"/>
</svg>
