<svg width="20" height="20" viewBox="0 0 20 20" fill="none" xmlns="http://www.w3.org/2000/svg">
<g clip-path="url(#clip0_2074_29272)">
<path d="M11.7875 5.56246L12.8625 3.38746C13.75 1.24996 16.375 0.0624597 18.0625 1.24996C18.1878 1.33945 18.3049 1.43984 18.4125 1.54996C18.6228 1.75933 18.7998 1.9996 18.9375 2.26246C19.825 3.97496 18.625 6.31246 16.65 7.08746L14.4375 8.17496L16.25 9.99996L14.4875 11.7625L8.23749 5.57496L9.99999 3.74996L11.7875 5.56246Z" fill="white"/>
<path d="M2.37336 14.2742L8.31078 8.33683L8.3142 8.34025L2.81536 13.8391L2.5833 14.0712L2.65727 14.3909C2.74964 14.7901 2.76594 15.2026 2.70594 15.6068C2.70824 15.1402 2.59307 14.6822 2.37336 14.2742ZM1.74244 17.6981C1.91885 17.5458 2.07393 17.3732 2.20523 17.1851L2.81506 17.795C2.62698 17.9263 2.45441 18.0813 2.30209 18.2578L1.89647 18.6634L1.33683 18.1037L1.74244 17.6981ZM5.72596 17.6268C5.31805 17.4071 4.85998 17.292 4.39342 17.2943C4.79763 17.2343 5.21009 17.2506 5.60931 17.3429L5.92904 17.4169L6.1611 17.1848L11.6599 11.686L11.6634 11.6894L5.72596 17.6268Z" fill="white" stroke="white" stroke-width="1.18345"/>
</g>
<defs>
<clipPath id="clip0_2074_29272">
<rect width="20" height="20" fill="white"/>
</clipPath>
</defs>
</svg>
