<svg width="16" height="16" viewBox="0 0 16 16" fill="none" xmlns="http://www.w3.org/2000/svg">
<path d="M8 1C4.1 1 1 4.1 1 8C1 11.9 4.1 15 8 15C11.9 15 15 11.9 15 8C15 4.1 11.9 1 8 1ZM8 13C7.2 13 6.5 12.3 6.5 11.5C6.5 10.7 7.2 10 8 10C8.8 10 9.5 10.7 9.5 11.5C9.5 12.3 8.8 13 8 13ZM9.39999 8.6C9.29999 8.7 9.1 8.8 9 8.9C8.9 9.3 8.5 9.6 8 9.6C7.4 9.6 7 9.1 7 8.6C7 7.8 7.70001 7.3 8.20001 6.9C8.40001 6.7 8.9 6.4 9 6.2C9 5.7 8.5 5.2 8 5.2C7.5 5.2 7.1 5.6 7 6.1C6.9 6.7 6.39999 7 5.79999 7C5.19999 6.9 4.79999 6.4 4.89999 5.8C5.09999 4.3 6.39999 3.1 7.89999 3.1C9.59999 3.1 11 4.5 11 6.2C11.1 7.5 10.1 8.2 9.39999 8.6Z" fill="white"/>
</svg>
