<svg width="10" height="10" viewBox="0 0 10 10" fill="none" xmlns="http://www.w3.org/2000/svg">
<g clip-path="url(#clip0_6093_945)">
<path d="M5 0C3.67392 0 2.40217 0.52678 1.46449 1.46446C0.526806 2.40214 0 3.67392 0 5C0 6.32608 0.526806 7.59786 1.46449 8.53554C2.40217 9.47322 3.67392 10 5 10C6.32608 10 7.59783 9.47322 8.53551 8.53554C9.47319 7.59786 10 6.32608 10 5C10 3.67392 9.47319 2.40214 8.53551 1.46446C7.59783 0.52678 6.32608 0 5 0ZM2.5 8.5V1.5L9.06667 5L2.5 8.5Z" fill="#C0C0C0"/>
</g>
<defs>
<clipPath id="clip0_6093_945">
<rect width="10" height="10" fill="white"/>
</clipPath>
</defs>
</svg>
