<svg width="16" height="16" viewBox="0 0 16 16" fill="none" xmlns="http://www.w3.org/2000/svg">
<g clip-path="url(#clip0_24633_36132)">
<path opacity="0.5" d="M14 6H12.5432V8H14V14H2V8H6V6H2C1.46957 6 0.960888 6.21071 0.585815 6.58578C0.210743 6.96086 0 7.46957 0 8V14C0 14.5304 0.210743 15.0391 0.585815 15.4142C0.960888 15.7893 1.46957 16 2 16H14C14.5304 16 15.0391 15.7893 15.4142 15.4142C15.7893 15.0391 16 14.5304 16 14V8C16 7.46957 15.7893 6.96086 15.4142 6.58578C15.0391 6.21071 14.5304 6 14 6Z" fill="white"/>
<path d="M6 9H13L9.5 13L6 9Z" fill="white"/>
<path fill-rule="evenodd" clip-rule="evenodd" d="M4.34481 0.301683C7.65418 -0.360067 10.748 2.22457 10.748 5.80785V11.0001H8.38787V5.80785C8.38787 3.85269 6.88137 1.94199 4.80953 1.94199C3.05244 1.94199 1.81504 2.64998 0.599651 5.3358C0.285238 2.61169 2.21793 0.726979 4.34481 0.301683Z" fill="white"/>
</g>
<defs>
<clipPath id="clip0_24633_36132">
<rect width="16" height="16" fill="white"/>
</clipPath>
</defs>
</svg>
