<svg width="16" height="16" viewBox="0 0 16 16" fill="none" xmlns="http://www.w3.org/2000/svg">
<path d="M14 1H9L0.5 9.5L6.5 15.5L15 7V2C15 1.73478 14.8947 1.48044 14.7072 1.29291C14.5196 1.10537 14.2652 1 14 1ZM12 5.5C11.7033 5.5 11.4133 5.41201 11.1666 5.24719C10.92 5.08237 10.7277 4.84812 10.6141 4.57404C10.5006 4.29995 10.4709 3.99834 10.5288 3.70737C10.5867 3.4164 10.7296 3.14911 10.9393 2.93933C11.1491 2.72955 11.4164 2.58669 11.7074 2.52881C11.9984 2.47093 12.2999 2.50063 12.574 2.61417C12.8481 2.7277 13.0824 2.91998 13.2472 3.16666C13.412 3.41333 13.5 3.70333 13.5 4C13.5 4.39782 13.342 4.77936 13.0607 5.06067C12.7794 5.34197 12.3978 5.5 12 5.5Z" fill="white"/>
</svg>
