<svg width="16" height="16" viewBox="0 0 16 16" fill="none" xmlns="http://www.w3.org/2000/svg">
<path d="M9 12H7V6H4V4H12V6H9V12Z" fill="white"/>
<path d="M14.7734 9.46452C15.1736 9.263 15.5837 9.1093 16 9.00481V7.00496C15.5859 6.89996 15.1779 6.74627 14.7799 6.54526C14.6542 6.45434 14.548 6.31219 14.4733 6.13533C14.3768 5.91979 14.3155 5.67349 14.2936 5.41601C14.2607 5.04174 14.247 4.66415 14.2533 4.28676C14.2692 3.67421 14.2402 3.06074 14.1667 2.45771C14.1201 2.14039 14.0111 1.85118 13.8535 1.6281C13.6604 1.38585 13.432 1.21467 13.1868 1.12838C12.8801 1.03261 12.5664 0.992231 12.2533 1.00833H12V2.00777C12.2003 2.02453 12.3933 2.12812 12.5553 2.30545C12.7173 2.48275 12.8417 2.72641 12.9134 3.0072C12.9737 3.197 12.9992 3.40783 12.987 3.61721C12.987 3.89708 13.0267 4.43656 13.0267 5.22569C13.0361 5.59569 13.079 5.96293 13.1536 6.31589C13.21 6.56842 13.2985 6.74835 13.4134 7.00496C13.6068 7.4368 13.7849 7.69596 14 8.00538C13.777 8.30722 13.6087 8.58783 13.4134 9.02433C13.2998 9.27827 13.2115 9.45512 13.1536 9.70364C13.079 10.0566 13.0361 10.4238 13.0267 10.7938C13 11.5795 12.987 12.1189 12.987 12.4121C12.9962 12.6148 12.9708 12.8185 12.9134 13.0026C12.8403 13.282 12.7151 13.5244 12.5534 13.7014C12.3917 13.8782 12.1998 13.9828 12 14.002V15.0014H12.2467C12.5598 15.0175 12.873 14.9771 13.1797 14.8814C13.4237 14.7909 13.6516 14.62 13.8464 14.3817C14.0027 14.1571 14.1121 13.8685 14.1602 13.5521C14.233 12.9489 14.2619 12.3355 14.2467 11.723C14.24 11.3457 14.2531 10.9679 14.2865 10.5938C14.3083 10.3362 14.3703 10.0891 14.4668 9.87347C14.5414 9.69678 14.6478 9.55536 14.7734 9.46452Z" fill="white"/>
<path d="M1.22656 9.46452C0.826425 9.263 0.416317 9.1093 0 9.00481V7.00496C0.414081 6.89996 0.822069 6.74627 1.22005 6.54526C1.34579 6.45434 1.45205 6.31219 1.52669 6.13533C1.62316 5.91979 1.68453 5.67349 1.70638 5.41601C1.73926 5.04174 1.753 4.66415 1.74674 4.28676C1.73084 3.67421 1.75984 3.06074 1.83333 2.45771C1.87987 2.14039 1.98893 1.85118 2.14648 1.6281C2.3396 1.38585 2.56802 1.21467 2.81315 1.12838C3.11995 1.03261 3.43355 0.992231 3.74674 1.00833H4V2.00777C3.79968 2.02453 3.60672 2.12812 3.44466 2.30545C3.2827 2.48275 3.15828 2.72641 3.08659 3.0072C3.02634 3.197 3.00079 3.40783 3.01302 3.61721C3.013 3.89708 2.97332 4.43656 2.97331 5.22569C2.96387 5.59569 2.92098 5.96293 2.84635 6.31589C2.78997 6.56842 2.70153 6.74835 2.58659 7.00496C2.39315 7.4368 2.2151 7.69596 2 8.00538C2.223 8.30722 2.39126 8.58783 2.58659 9.02433C2.70022 9.27827 2.78848 9.45512 2.84635 9.70364C2.92098 10.0566 2.96387 10.4238 2.97331 10.7938C2.99995 11.5795 3.01301 12.1189 3.01302 12.4121C3.00375 12.6148 3.02922 12.8185 3.08659 13.0026C3.15971 13.282 3.28491 13.5244 3.44661 13.7014C3.60832 13.8782 3.80025 13.9828 4 14.002V15.0014H3.75326C3.44021 15.0175 3.12697 14.9771 2.82031 14.8814C2.57629 14.7909 2.34841 14.62 2.15365 14.3817C1.99734 14.1571 1.88792 13.8685 1.83984 13.5521C1.76703 12.9489 1.73805 12.3355 1.75326 11.723C1.76001 11.3457 1.74691 10.9679 1.71354 10.5938C1.6917 10.3362 1.62972 10.0891 1.5332 9.87347C1.45856 9.69677 1.35223 9.55537 1.22656 9.46452Z" fill="white"/>
</svg>
